<svg xmlns="http://www.w3.org/2000/svg" viewBox="0 0 124 124"><path fill="#87ddfd" d="M69.016 48.924c-.94 0-1.058 1.465-.956 2.087 1.174 7.132 16.372 21.751 27.607 20.688 8.34-.79 23.391-14.885 23.375-20.677-.003-1.093-.209-1.9-.761-2.056-.285-.083-.687.016-.95.53-1.034 2.015-4.22 1.124-4.039-1.136.304-3.812.545-8.643-.124-13.252l-7.302-.02c-1.004 5.866-6.137 10.344-12.298 10.344-6.186 0-11.334-4.514-12.31-10.412l-7.276-.019c-.688 4.638-.447 9.511-.14 13.358.179 2.252-2.992 3.154-4.035 1.143-.223-.427-.53-.578-.791-.578zm36.835-18.104 6.414.016-3.522-14.868C107.72 13.552 105.419 12 102.841 12H84.293c-2.578 0-4.879 1.552-5.902 3.968l-3.505 14.78 6.41.015c1.059-5.797 6.177-10.22 12.271-10.22 6.127 0 11.25 4.448 12.284 10.277zM83.809 81.436l-2.836 2.613-.076.07 5.829 8.375 3.674-6.416zM100.025 92.494l5.848-8.401-2.666-2.762-7.245 4.838z" class="color000000 svgShape"/><path fill="#87ddfd" d="M121.956 102.681c-2.143-5.555-5.334-8.99-6.868-10.639a36.186 36.186 0 0 0-5.964-5.141l-7.489 10.758c-.878 1.258-2.825 1.189-3.605-.135l-4.794-7.765-4.514 7.765c-.78 1.324-2.728 1.393-3.605.135l-7.39-10.616c-.218.201-7.511 4.922-11.707 13.697-.12.252-.705 2.295-1.356 4.836.267 2.26.45 4.492.531 6.425H124a31.476 31.476 0 0 0-2.044-9.32zm-6.468 2.464h-2.658v2.754a2.134 2.134 0 0 1-2.14 2.128 2.134 2.134 0 0 1-2.14-2.128v-2.754h-2.658a2.134 2.134 0 0 1-2.14-2.128c0-1.175.958-2.128 2.14-2.128h2.658v-2.754c0-1.175.958-2.128 2.14-2.128 1.182 0 2.14.953 2.14 2.128v2.754h2.658c1.182 0 2.14.953 2.14 2.128a2.133 2.133 0 0 1-2.14 2.128zM93.567 24.798c-4.52 0-8.197 3.674-8.197 8.19s3.677 8.19 8.197 8.19 8.196-3.674 8.196-8.19-3.676-8.19-8.196-8.19zm3.389 10.782h-1.249v1.32a2.134 2.134 0 0 1-2.14 2.128 2.134 2.134 0 0 1-2.14-2.128v-1.32h-1.249c-1.182 0-2.14-.953-2.14-2.128s.958-2.128 2.14-2.128h1.249v-1.32c0-1.175.958-2.128 2.14-2.128 1.182 0 2.14.953 2.14 2.128v1.32h1.249c1.182 0 2.14.953 2.14 2.128s-.958 2.128-2.14 2.128z" class="color000000 svgShape"/><ellipse cx="46.423" cy="98.111" fill="#87ddfd" class="color000000 svgShape" rx="1.343" ry="1.43"/><path fill="#87ddfd" d="M59.327 99.84c-2.607-7.608-7.645-12.324-10.764-14.861v7.88a5.69 5.69 0 0 1 3.483 5.252c0 3.134-2.522 5.685-5.623 5.685-3.101 0-5.623-2.55-5.623-5.685a5.69 5.69 0 0 1 3.483-5.252V81.855c-.307-.197-.608-.404-.919-.592-7.276 6.399-18.441 6.466-25.69-.011-.539.279-1.051.598-1.572.905l.085 11.992 2.866 1.617c3.049 1.72 4.869 4.703 4.869 7.98v4.128c0 1.175-.958 2.128-2.14 2.128s-2.14-.953-2.14-2.128v-4.128c0-1.725-1.01-3.324-2.701-4.279l-2.942-1.66-3.487 1.759c-1.824.92-2.957 2.613-2.957 4.415v3.892c0 1.175-.958 2.128-2.14 2.128s-2.14-.953-2.14-2.128v-3.892c0-3.415 2.031-6.561 5.301-8.209l3.33-1.681-.063-8.945c-1.218 1.008-2.386 2.082-3.46 3.269-4.111 4.541-6.028 9.129-6.805 11.459C.522 103.043.12 108.616 0 112h60.912c-.204-4.587-.991-10.426-1.585-12.16zm-2.885-55.267-.324-.759c-.415 1.823-.886 3.625-1.508 5.39-.532 1.508-1.232 2.935-1.779 4.432 2.078-.685 3.28-2.485 3.804-4.549.411-1.619.341-3.264-.193-4.514zm-52.37 0 .324-.759c.415 1.823.886 3.625 1.508 5.39.532 1.508 1.232 2.935 1.779 4.432-2.078-.685-3.28-2.485-3.804-4.549-.411-1.619-.341-3.264.193-4.514z" class="color000000 svgShape"/><path fill="#87ddfd" d="M26.272 81.316c4.778 1.399 10.087.216 13.898-2.935-.356-.486-1.73-2.437-2.03-2.837-4.428 2.208-10.121 2.184-14.566-.001-.726 1.501-1.609 2.574-2.199 3.242a14.825 14.825 0 0 0 4.897 2.531zM8.115 37.485c-.269-1.055.55-2.025.962-3.041.669-1.647 1.501-3.696 3.317-5.634 3.117-3.328 7.054-4.056 8.715-4.453 7.201-1.719 15.374 2.966 16.376 3.62.892.582 1.536 1.001 2.765 1.369 2.695.799 5.644.579 9.014-.672 1.192-.443 2.55.284 2.834 1.515.383 1.651.713 3.329.986 5.006.057-2.239-.133-4.765-1.005-7.591-.644-2.085-2.369-6.725-6.775-10.821-5.137-4.775-13.433-4.627-13.515-4.636-11.696-1.216-18.462 5.924-18.578 6.007-2.99 2.155-1.465 5.229-1.129 5.823.977 1.727-.702 2.888-1.846 3.887-.353.31-3.057 5.945-2.121 9.621z" class="color000000 svgShape"/><path fill="#87ddfd" d="M13.786 34.309c-3.256 5.94-3.523 13.054-.991 19.332 1.295 3.209 2.864 6.864 3.949 8.642 2.242 3.673 5.15 8.071 9.364 9.735 3.89 1.536 8.684 1.163 11.989-1.491 2.564-2.059 4.42-4.976 6.055-7.774a64.157 64.157 0 0 0 3.794-7.636c1.282-3.069 1.877-6.38 1.813-9.703l-.001-.053c-.027-1.388-.149-4.263-.66-7.915a71.258 71.258 0 0 0-.688-4.044c-8.241 2.179-15.118-3.07-16.918-3.736 0 0-5.288-1.991-9.534-1.138-1.486.299-4.252.855-6.432 3.183-.383.408-1.034 1.311-1.74 2.598z" class="color000000 svgShape"/></svg>